# xmcd
# 
# Track frame offsets:
#     150
#     34955
#     56396
#     85236
#     103377
#     130741
#     155934
#     187534
#     204284
# 
# Disc length: 2805
# 
# Revision: 1
# Processed by: cddbd v1.5.2PL0 Copyright (c) Steve Scherf et al.
# Submitted via: fre:ac v1.0.27
# 
DISCID=730af309
DTITLE=David Maxwell and Louisiana Red - You Got To Move
DYEAR=2009
DGENRE=Blues
TTITLE0=Get YourHands Off My Woman
TTITLE1=Going Back To Memphis
TTITLE2=You Got To Move
TTITLE3=New Jersey Women
TTITLE4=Been Down So Long
TTITLE5=Barbara Jean
TTITLE6=Stop You Crying
TTITLE7=Red Talks About Homesick James And Others
TTITLE8=Red Talks About Bending Strings
EXTD=
EXTT0=
EXTT1=
EXTT2=
EXTT3=
EXTT4=
EXTT5=
EXTT6=
EXTT7=
EXTT8=
PLAYORDER=
